<?xml version="1.0" encoding="UTF-8" standalone="no"?>
<svg
   viewBox="0 0 64 64"
   version="1.1"
   id="svg1"
   sodipodi:docname="favicon-1.svg"
   inkscape:version="1.4.2 (f4327f4, 2025-05-13)"
   xmlns:inkscape="http://www.inkscape.org/namespaces/inkscape"
   xmlns:sodipodi="http://sodipodi.sourceforge.net/DTD/sodipodi-0.dtd"
   xmlns="http://www.w3.org/2000/svg"
   xmlns:svg="http://www.w3.org/2000/svg">
  <defs
     id="defs1" />
  <sodipodi:namedview
     id="namedview1"
     pagecolor="#ffffff"
     bordercolor="#000000"
     borderopacity="0.25"
     inkscape:showpageshadow="2"
     inkscape:pageopacity="0.0"
     inkscape:pagecheckerboard="0"
     inkscape:deskcolor="#d1d1d1"
     inkscape:zoom="9.1150484"
     inkscape:cx="31.81552"
     inkscape:cy="34.064548"
     inkscape:window-width="1920"
     inkscape:window-height="1027"
     inkscape:window-x="-8"
     inkscape:window-y="-8"
     inkscape:window-maximized="1"
     inkscape:current-layer="svg1" />
  <rect
     width="64"
     height="64"
     rx="14"
     fill="#1f6f4a"
     id="rect1" />
  <path
     fill="#ffffff"
     d="M 18,46 V 18 h 18 c 6.2,0 10,3.2 10,8.3 0,3.1 -1.7,5.5 -4.7,6.6 3.6,1 5.7,3.8 5.7,7.4 0,5.4 -4.2,8.7 -10.9,8.7 H 18 Z m 8,-16 h 8.8 c 2.2,0 3.5,-1.1 3.5,-3 0,-1.9 -1.3,-3 -3.5,-3 H 26 Z m 0,12 h 9.6 c 2.5,0 3.9,-1.2 3.9,-3.3 0,-2 -1.4,-3.2 -3.9,-3.2 H 26 Z"
     id="path1"
     style="fill:#ff0000;stroke:#000000;stroke-width:0.6;stroke-dasharray:none;stroke-opacity:1" />
</svg>
